<?xml version="1.0" encoding="UTF-8" standalone="no"?>
<!DOCTYPE svg PUBLIC "-//W3C//DTD SVG 1.1//EN"
 "http://www.w3.org/Graphics/SVG/1.1/DTD/svg11.dtd">
<!-- Generated by graphviz version 2.44.1 (20200629.0846)
 -->
<!-- Title: g Pages: 1 -->
<svg width="1030pt" height="910pt"
 viewBox="0.00 0.00 1030.00 910.40" xmlns="http://www.w3.org/2000/svg" xmlns:xlink="http://www.w3.org/1999/xlink">
<g id="graph0" class="graph" transform="scale(1 1) rotate(0) translate(4 906.4)">
<title>g</title>
<polygon fill="white" stroke="transparent" points="-4,4 -4,-906.4 1026,-906.4 1026,4 -4,4"/>
<g id="clust1" class="cluster">
<title>cluster_1068799382</title>
<polygon fill="#ececec" stroke="black" points="8,-8 8,-242.8 800,-242.8 800,-8 8,-8"/>
<text text-anchor="middle" x="36.22" y="-226.2" font-family="Times New Roman,serif" font-size="14.00">models</text>
</g>
<g id="clust2" class="cluster">
<title>cluster_1789464955</title>
<polygon fill="#ececec" stroke="black" points="242,-294.4 242,-625.2 752,-625.2 752,-294.4 242,-294.4"/>
<text text-anchor="middle" x="274.1" y="-608.6" font-family="Times New Roman,serif" font-size="14.00">database</text>
</g>
<g id="clust3" class="cluster">
<title>cluster_805824133</title>
<polygon fill="#ececec" stroke="black" points="808,-80 808,-170.8 1014,-170.8 1014,-80 808,-80"/>
<text text-anchor="middle" x="836.21" y="-154.2" font-family="Times New Roman,serif" font-size="14.00">helpers</text>
</g>
<g id="clust4" class="cluster">
<title>cluster_905826493</title>
<polygon fill="#ececec" stroke="black" points="404,-676.8 404,-894.4 592,-894.4 592,-676.8 404,-676.8"/>
<text text-anchor="middle" x="429.1" y="-877.8" font-family="Times New Roman,serif" font-size="14.00">server</text>
</g>
<!-- ChatMessage412335989 -->
<g id="node1" class="node">
<title>ChatMessage412335989</title>
<polygon fill="#ffffff" stroke="transparent" points="190,-174 16,-174 16,-52 190,-52 190,-174"/>
<text text-anchor="start" x="21" y="-156.4" font-family="Times New Roman,serif" font-size="14.00">(C)ChatMessage</text>
<text text-anchor="start" x="21" y="-132.4" font-family="Times New Roman,serif" font-size="14.00">&#45; &#160;&#160;content: String [0..1]</text>
<text text-anchor="start" x="21" y="-108.4" font-family="Times New Roman,serif" font-size="14.00">&#45; &#160;&#160;createdAt: Instant [0..1]</text>
<text text-anchor="start" x="21" y="-84.4" font-family="Times New Roman,serif" font-size="14.00">&#45; &#160;&#160;user: UserDTO [0..1]</text>
<text text-anchor="start" x="20.91" y="-60.4" font-family="Times New Roman,serif" font-size="14.00">+ toDto(): ChatMessageDTO</text>
<polygon fill="black" stroke="black" points="16,-149 16,-149 190,-149 190,-149 16,-149"/>
<polygon fill="black" stroke="black" points="16,-77 16,-77 190,-77 190,-77 16,-77"/>
<polygon fill="none" stroke="black" points="16,-52 16,-174 190,-174 190,-52 16,-52"/>
</g>
<!-- Group412335989 -->
<g id="node2" class="node">
<title>Group412335989</title>
<polygon fill="#ffffff" stroke="transparent" points="485.5,-198 208.5,-198 208.5,-28 485.5,-28 485.5,-198"/>
<text text-anchor="start" x="214" y="-180.4" font-family="Times New Roman,serif" font-size="14.00">(C)Group</text>
<text text-anchor="start" x="214" y="-156.4" font-family="Times New Roman,serif" font-size="14.00">&#45; &#160;&#160;id: String [0..1]</text>
<text text-anchor="start" x="214" y="-132.4" font-family="Times New Roman,serif" font-size="14.00">&#45; &#160;&#160;name: String [0..1]</text>
<text text-anchor="start" x="214" y="-108.4" font-family="Times New Roman,serif" font-size="14.00">&#45; &#160;&#160;owner: UserDTO [0..1]</text>
<text text-anchor="start" x="214" y="-84.4" font-family="Times New Roman,serif" font-size="14.00">&#45; &#160;&#160;users: List&lt;UserDTO&gt; [0..*]</text>
<text text-anchor="start" x="213.71" y="-60.4" font-family="Times New Roman,serif" font-size="14.00">+ from(name: String, owner: UserDTO): Group</text>
<text text-anchor="start" x="214" y="-36.4" font-family="Times New Roman,serif" font-size="14.00">+ toDto(): GroupDTO</text>
<polygon fill="black" stroke="black" points="209,-173 209,-173 486,-173 486,-173 209,-173"/>
<polygon fill="black" stroke="black" points="209,-77 209,-77 486,-77 486,-77 209,-77"/>
<polygon fill="none" stroke="black" points="208.5,-28 208.5,-198 485.5,-198 485.5,-28 208.5,-28"/>
</g>
<!-- User412335989 -->
<g id="node3" class="node">
<title>User412335989</title>
<polygon fill="#ffffff" stroke="transparent" points="792,-210 504,-210 504,-16 792,-16 792,-210"/>
<text text-anchor="start" x="509" y="-192.4" font-family="Times New Roman,serif" font-size="14.00">(C)User</text>
<text text-anchor="start" x="509" y="-168.4" font-family="Times New Roman,serif" font-size="14.00">&#45; &#160;&#160;id: String [0..1]</text>
<text text-anchor="start" x="509" y="-144.4" font-family="Times New Roman,serif" font-size="14.00">&#45; &#160;&#160;password: String [0..1]</text>
<text text-anchor="start" x="509" y="-120.4" font-family="Times New Roman,serif" font-size="14.00">&#45; &#160;&#160;socket: Socket [0..1]</text>
<text text-anchor="start" x="509" y="-96.4" font-family="Times New Roman,serif" font-size="14.00">&#45; &#160;&#160;username: String [0..1]</text>
<text text-anchor="start" x="509" y="-72.4" font-family="Times New Roman,serif" font-size="14.00">&#45; &#160;&#160;writer: PrintWriter [0..1]</text>
<text text-anchor="start" x="508.76" y="-48.4" font-family="Times New Roman,serif" font-size="14.00">+ from(username: String, password: String): User</text>
<text text-anchor="start" x="509" y="-24.4" font-family="Times New Roman,serif" font-size="14.00">+ toDto(): UserDTO</text>
<polygon fill="black" stroke="black" points="504,-185 504,-185 792,-185 792,-185 504,-185"/>
<polygon fill="black" stroke="black" points="504,-65 504,-65 792,-65 792,-65 504,-65"/>
<polygon fill="none" stroke="black" points="504,-16 504,-210 792,-210 792,-16 504,-16"/>
</g>
<!-- Database768585786 -->
<g id="node4" class="node">
<title>Database768585786</title>
<polygon fill="#ffffff" stroke="transparent" points="744,-592.4 250,-592.4 250,-302.4 744,-302.4 744,-592.4"/>
<text text-anchor="start" x="255" y="-574.8" font-family="Times New Roman,serif" font-size="14.00">(C)Database</text>
<text text-anchor="start" x="255" y="-550.8" font-family="Times New Roman,serif" font-size="14.00">&#45; &#160;&#160;groups: HashMap&lt;String, Group&gt; [0..*]</text>
<text text-anchor="start" x="255" y="-526.8" font-family="Times New Roman,serif" font-size="14.00">&#45; &#160;&#160;mapper: Mapper [0..1]</text>
<text text-anchor="start" x="255" y="-502.8" font-family="Times New Roman,serif" font-size="14.00">&#45; &#160;&#160;messages: HashMap&lt;String, List&lt;ChatMessage&gt;&gt; [0..*]</text>
<text text-anchor="start" x="255" y="-478.8" font-family="Times New Roman,serif" font-size="14.00">&#45; &#160;&#160;users: HashMap&lt;String, User&gt; [0..*]</text>
<text text-anchor="start" x="255" y="-454.8" font-family="Times New Roman,serif" font-size="14.00">+ getGroupHistoryMessages(groupId: String): ArrayList&lt;ChatMessageDTO&gt;</text>
<text text-anchor="start" x="255" y="-430.8" font-family="Times New Roman,serif" font-size="14.00">+ getOnlineUsersListOnGroup(groupId: String): List&lt;UserDTO&gt;</text>
<text text-anchor="start" x="255" y="-406.8" font-family="Times New Roman,serif" font-size="14.00">+ getPrivateHistoryMessages(from: String, to: String): ArrayList&lt;ChatMessageDTO&gt;</text>
<text text-anchor="start" x="255" y="-382.8" font-family="Times New Roman,serif" font-size="14.00">&#45; loadDataFromFile()</text>
<text text-anchor="start" x="255" y="-358.8" font-family="Times New Roman,serif" font-size="14.00">+ login(username: String, password: String): Optional&lt;User&gt;</text>
<text text-anchor="start" x="255" y="-334.8" font-family="Times New Roman,serif" font-size="14.00">+ register(username: String, password: String): boolean</text>
<text text-anchor="start" x="255" y="-310.8" font-family="Times New Roman,serif" font-size="14.00">&#45; saveDataToFile()</text>
<polygon fill="black" stroke="black" points="250,-567.4 250,-567.4 744,-567.4 744,-567.4 250,-567.4"/>
<polygon fill="black" stroke="black" points="250,-471.4 250,-471.4 744,-471.4 744,-471.4 250,-471.4"/>
<polygon fill="none" stroke="black" points="250,-302.4 250,-592.4 744,-592.4 744,-302.4 250,-302.4"/>
</g>
<!-- Database768585786&#45;&gt;ChatMessage412335989 -->
<g id="edge1" class="edge">
<title>Database768585786&#45;&gt;ChatMessage412335989</title>
<path fill="none" stroke="black" d="M286.7,-302.24C237.94,-268.81 200,-242.8 200,-242.8 200,-242.8 177.77,-213.28 154.6,-182.51"/>
<polygon fill="black" stroke="black" points="157.19,-180.13 148.38,-174.25 151.6,-184.35 157.19,-180.13"/>
<text text-anchor="middle" x="282.43" y="-271.8" font-family="Times New Roman,serif" font-size="14.00">messages</text>
<text text-anchor="middle" x="282.43" y="-255" font-family="Times New Roman,serif" font-size="14.00">[0..*]</text>
</g>
<!-- Database768585786&#45;&gt;Group412335989 -->
<g id="edge2" class="edge">
<title>Database768585786&#45;&gt;Group412335989</title>
<path fill="none" stroke="black" d="M431.86,-302.05C417.45,-270.12 402.55,-237.09 389.32,-207.79"/>
<polygon fill="black" stroke="black" points="392.4,-206.09 385.09,-198.41 386.02,-208.97 392.4,-206.09"/>
<text text-anchor="middle" x="441.05" y="-271.8" font-family="Times New Roman,serif" font-size="14.00">groups</text>
<text text-anchor="middle" x="441.05" y="-255" font-family="Times New Roman,serif" font-size="14.00">[0..*]</text>
</g>
<!-- Database768585786&#45;&gt;User412335989 -->
<g id="edge4" class="edge">
<title>Database768585786&#45;&gt;User412335989</title>
<path fill="none" stroke="black" d="M562.57,-302.05C575.17,-274.31 588.15,-245.75 600.07,-219.52"/>
<polygon fill="black" stroke="black" points="603.29,-220.89 604.23,-210.34 596.91,-218 603.29,-220.89"/>
<text text-anchor="middle" x="596.16" y="-271.8" font-family="Times New Roman,serif" font-size="14.00">users</text>
<text text-anchor="middle" x="596.16" y="-255" font-family="Times New Roman,serif" font-size="14.00">[0..*]</text>
</g>
<!-- Mapper805824133 -->
<g id="node5" class="node">
<title>Mapper805824133</title>
<polygon fill="#ffffff" stroke="transparent" points="1005.5,-138 816.5,-138 816.5,-88 1005.5,-88 1005.5,-138"/>
<text text-anchor="start" x="822" y="-120.4" font-family="Times New Roman,serif" font-size="14.00">(C)Mapper</text>
<text text-anchor="start" x="821.9" y="-96.4" font-family="Times New Roman,serif" font-size="14.00">&#45; &#160;&#160;mapper: ObjectMapper [0..1]</text>
<polygon fill="black" stroke="black" points="817,-113 817,-113 1006,-113 1006,-113 817,-113"/>
<polygon fill="none" stroke="black" points="816.5,-88 816.5,-138 1005.5,-138 1005.5,-88 816.5,-88"/>
</g>
<!-- Database768585786&#45;&gt;Mapper805824133 -->
<g id="edge3" class="edge">
<title>Database768585786&#45;&gt;Mapper805824133</title>
<path fill="none" stroke="black" d="M714.38,-302.24C764.78,-268.81 804,-242.8 804,-242.8 804,-242.8 852.7,-184.17 884.39,-146.03"/>
<polygon fill="black" stroke="black" points="887.18,-148.15 890.87,-138.23 881.79,-143.68 887.18,-148.15"/>
<text text-anchor="middle" x="811.99" y="-271.8" font-family="Times New Roman,serif" font-size="14.00">mapper</text>
<text text-anchor="middle" x="811.99" y="-255" font-family="Times New Roman,serif" font-size="14.00">[0..1]</text>
</g>
<!-- Facade905826493 -->
<g id="node6" class="node">
<title>Facade905826493</title>
<polygon fill="#ffffff" stroke="transparent" points="581.5,-758.8 412.5,-758.8 412.5,-684.8 581.5,-684.8 581.5,-758.8"/>
<text text-anchor="start" x="418" y="-741.2" font-family="Times New Roman,serif" font-size="14.00">(C)Facade</text>
<text text-anchor="start" x="418" y="-717.2" font-family="Times New Roman,serif" font-size="14.00">&#45; &#160;&#160;Database: Database [0..1]</text>
<text text-anchor="start" x="417.74" y="-693.2" font-family="Times New Roman,serif" font-size="14.00">+ newConnection(s: Socket)</text>
<polygon fill="black" stroke="black" points="413,-733.8 413,-733.8 582,-733.8 582,-733.8 413,-733.8"/>
<polygon fill="black" stroke="black" points="413,-709.8 413,-709.8 582,-709.8 582,-709.8 413,-709.8"/>
<polygon fill="none" stroke="black" points="412.5,-684.8 412.5,-758.8 581.5,-758.8 581.5,-684.8 412.5,-684.8"/>
</g>
<!-- Facade905826493&#45;&gt;Database768585786 -->
<g id="edge5" class="edge">
<title>Facade905826493&#45;&gt;Database768585786</title>
<path fill="none" stroke="black" d="M497,-684.63C497,-662.91 497,-633.64 497,-603.1"/>
<polygon fill="black" stroke="black" points="500.5,-602.71 497,-592.71 493.5,-602.71 500.5,-602.71"/>
<text text-anchor="middle" x="522.65" y="-654.2" font-family="Times New Roman,serif" font-size="14.00">Database</text>
<text text-anchor="middle" x="522.65" y="-637.4" font-family="Times New Roman,serif" font-size="14.00">[0..1]</text>
</g>
<!-- Main905826493 -->
<g id="node7" class="node">
<title>Main905826493</title>
<polygon fill="#ffffff" stroke="transparent" points="544,-861.6 412,-861.6 412,-811.6 544,-811.6 544,-861.6"/>
<text text-anchor="start" x="417" y="-844" font-family="Times New Roman,serif" font-size="14.00">(C)Main</text>
<text text-anchor="start" x="416.52" y="-820" font-family="Times New Roman,serif" font-size="14.00">+ main(args: String[])</text>
<polygon fill="black" stroke="black" points="412,-836.6 412,-836.6 544,-836.6 544,-836.6 412,-836.6"/>
<polygon fill="none" stroke="black" points="412,-811.6 412,-861.6 544,-861.6 544,-811.6 412,-811.6"/>
</g>
<!-- Main905826493&#45;&gt;Facade905826493 -->
<g id="edge6" class="edge">
<title>Main905826493&#45;&gt;Facade905826493</title>
<path fill="none" stroke="black" d="M482.08,-811.4C484.17,-798.99 486.78,-783.45 489.24,-768.86"/>
<polygon fill="black" stroke="black" points="492.7,-769.41 490.91,-758.96 485.8,-768.24 492.7,-769.41"/>
<text text-anchor="middle" x="564.03" y="-781" font-family="Times New Roman,serif" font-size="14.00">main() &#45;&gt; newConnection()</text>
</g>
</g>
</svg>
